<mxfile host="app.diagrams.net" agent="Mozilla/5.0 (Macintosh; Intel Mac OS X 10_15_7) AppleWebKit/537.36 (KHTML, like Gecko) Chrome/120.0.0.0 Safari/537.36" version="24.7.10">
  <diagram id="C5RBs43oDa-KdzZeNtuy" name="Page-1">
    <mxGraphModel dx="1752" dy="1029" grid="1" gridSize="10" guides="1" tooltips="1" connect="1" arrows="1" fold="1" page="1" pageScale="1" pageWidth="827" pageHeight="1169" math="0" shadow="0">
      <root>
        <mxCell id="WIyWlLk6GJQsqaUBKTNV-0" />
        <mxCell id="WIyWlLk6GJQsqaUBKTNV-1" parent="WIyWlLk6GJQsqaUBKTNV-0" />
        <mxCell id="WIyWlLk6GJQsqaUBKTNV-2" value="" style="rounded=0;html=1;jettySize=auto;orthogonalLoop=1;fontSize=11;endArrow=block;endFill=0;endSize=8;strokeWidth=1;shadow=0;labelBackgroundColor=none;edgeStyle=orthogonalEdgeStyle;" parent="WIyWlLk6GJQsqaUBKTNV-1" source="WIyWlLk6GJQsqaUBKTNV-3" target="WIyWlLk6GJQsqaUBKTNV-6" edge="1">
          <mxGeometry relative="1" as="geometry" />
        </mxCell>
        <mxCell id="WIyWlLk6GJQsqaUBKTNV-3" value="Amazon Q Business" style="rounded=1;whiteSpace=wrap;html=1;fontSize=12;glass=0;strokeWidth=1;shadow=0;" parent="WIyWlLk6GJQsqaUBKTNV-1" vertex="1">
          <mxGeometry x="320" y="30" width="120" height="40" as="geometry" />
        </mxCell>
        <mxCell id="WIyWlLk6GJQsqaUBKTNV-5" value="Yes" style="edgeStyle=orthogonalEdgeStyle;rounded=0;html=1;jettySize=auto;orthogonalLoop=1;fontSize=11;endArrow=block;endFill=0;endSize=8;strokeWidth=1;shadow=0;labelBackgroundColor=none;" parent="WIyWlLk6GJQsqaUBKTNV-1" source="WIyWlLk6GJQsqaUBKTNV-6" target="WIyWlLk6GJQsqaUBKTNV-7" edge="1">
          <mxGeometry y="10" relative="1" as="geometry">
            <mxPoint as="offset" />
          </mxGeometry>
        </mxCell>
        <mxCell id="SqwQ_3rMoiUMI7zxhMic-33" value="" style="edgeStyle=orthogonalEdgeStyle;rounded=0;orthogonalLoop=1;jettySize=auto;html=1;" edge="1" parent="WIyWlLk6GJQsqaUBKTNV-1" source="WIyWlLk6GJQsqaUBKTNV-6" target="SqwQ_3rMoiUMI7zxhMic-32">
          <mxGeometry relative="1" as="geometry" />
        </mxCell>
        <mxCell id="WIyWlLk6GJQsqaUBKTNV-6" value="Read &amp;amp; Write access" style="rhombus;whiteSpace=wrap;html=1;shadow=0;fontFamily=Helvetica;fontSize=12;align=center;strokeWidth=1;spacing=6;spacingTop=-4;" parent="WIyWlLk6GJQsqaUBKTNV-1" vertex="1">
          <mxGeometry x="330" y="120" width="100" height="80" as="geometry" />
        </mxCell>
        <mxCell id="SqwQ_3rMoiUMI7zxhMic-1" value="" style="edgeStyle=orthogonalEdgeStyle;rounded=0;orthogonalLoop=1;jettySize=auto;html=1;" edge="1" parent="WIyWlLk6GJQsqaUBKTNV-1" source="WIyWlLk6GJQsqaUBKTNV-7" target="SqwQ_3rMoiUMI7zxhMic-0">
          <mxGeometry relative="1" as="geometry" />
        </mxCell>
        <mxCell id="WIyWlLk6GJQsqaUBKTNV-7" value="Create Q business app" style="rounded=1;whiteSpace=wrap;html=1;fontSize=12;glass=0;strokeWidth=1;shadow=0;" parent="WIyWlLk6GJQsqaUBKTNV-1" vertex="1">
          <mxGeometry x="480" y="140" width="120" height="40" as="geometry" />
        </mxCell>
        <mxCell id="SqwQ_3rMoiUMI7zxhMic-3" value="" style="edgeStyle=orthogonalEdgeStyle;rounded=0;orthogonalLoop=1;jettySize=auto;html=1;" edge="1" parent="WIyWlLk6GJQsqaUBKTNV-1" source="SqwQ_3rMoiUMI7zxhMic-0" target="SqwQ_3rMoiUMI7zxhMic-2">
          <mxGeometry relative="1" as="geometry" />
        </mxCell>
        <mxCell id="SqwQ_3rMoiUMI7zxhMic-40" value="" style="edgeStyle=orthogonalEdgeStyle;rounded=0;orthogonalLoop=1;jettySize=auto;html=1;" edge="1" parent="WIyWlLk6GJQsqaUBKTNV-1" source="SqwQ_3rMoiUMI7zxhMic-0" target="SqwQ_3rMoiUMI7zxhMic-39">
          <mxGeometry relative="1" as="geometry" />
        </mxCell>
        <mxCell id="SqwQ_3rMoiUMI7zxhMic-0" value="IAM Identity setup" style="rounded=1;whiteSpace=wrap;html=1;fontSize=12;glass=0;strokeWidth=1;shadow=0;" vertex="1" parent="WIyWlLk6GJQsqaUBKTNV-1">
          <mxGeometry x="480" y="260" width="120" height="40" as="geometry" />
        </mxCell>
        <mxCell id="SqwQ_3rMoiUMI7zxhMic-5" value="" style="edgeStyle=orthogonalEdgeStyle;rounded=0;orthogonalLoop=1;jettySize=auto;html=1;" edge="1" parent="WIyWlLk6GJQsqaUBKTNV-1" source="SqwQ_3rMoiUMI7zxhMic-2" target="SqwQ_3rMoiUMI7zxhMic-4">
          <mxGeometry relative="1" as="geometry" />
        </mxCell>
        <mxCell id="SqwQ_3rMoiUMI7zxhMic-2" value="Add Index Retriver" style="rounded=1;whiteSpace=wrap;html=1;fontSize=12;glass=0;strokeWidth=1;shadow=0;" vertex="1" parent="WIyWlLk6GJQsqaUBKTNV-1">
          <mxGeometry x="480" y="380" width="120" height="40" as="geometry" />
        </mxCell>
        <mxCell id="SqwQ_3rMoiUMI7zxhMic-9" value="" style="edgeStyle=orthogonalEdgeStyle;rounded=0;orthogonalLoop=1;jettySize=auto;html=1;" edge="1" parent="WIyWlLk6GJQsqaUBKTNV-1" source="SqwQ_3rMoiUMI7zxhMic-4" target="SqwQ_3rMoiUMI7zxhMic-8">
          <mxGeometry relative="1" as="geometry" />
        </mxCell>
        <mxCell id="SqwQ_3rMoiUMI7zxhMic-4" value="Add Data Sources&lt;div&gt;like Jira, S3&amp;nbsp;&lt;/div&gt;" style="rounded=1;whiteSpace=wrap;html=1;fontSize=12;glass=0;strokeWidth=1;shadow=0;" vertex="1" parent="WIyWlLk6GJQsqaUBKTNV-1">
          <mxGeometry x="480" y="500" width="120" height="40" as="geometry" />
        </mxCell>
        <mxCell id="SqwQ_3rMoiUMI7zxhMic-11" value="" style="edgeStyle=orthogonalEdgeStyle;rounded=0;orthogonalLoop=1;jettySize=auto;html=1;" edge="1" parent="WIyWlLk6GJQsqaUBKTNV-1" source="SqwQ_3rMoiUMI7zxhMic-8" target="SqwQ_3rMoiUMI7zxhMic-10">
          <mxGeometry relative="1" as="geometry" />
        </mxCell>
        <mxCell id="SqwQ_3rMoiUMI7zxhMic-14" value="" style="edgeStyle=orthogonalEdgeStyle;rounded=0;orthogonalLoop=1;jettySize=auto;html=1;" edge="1" parent="WIyWlLk6GJQsqaUBKTNV-1" source="SqwQ_3rMoiUMI7zxhMic-8" target="SqwQ_3rMoiUMI7zxhMic-13">
          <mxGeometry relative="1" as="geometry" />
        </mxCell>
        <mxCell id="SqwQ_3rMoiUMI7zxhMic-8" value="Create Authentication" style="rhombus;whiteSpace=wrap;html=1;rounded=1;glass=0;strokeWidth=1;shadow=0;" vertex="1" parent="WIyWlLk6GJQsqaUBKTNV-1">
          <mxGeometry x="485" y="610" width="110" height="120" as="geometry" />
        </mxCell>
        <mxCell id="SqwQ_3rMoiUMI7zxhMic-10" value="Need role Permissions&lt;div&gt;&lt;span style=&quot;text-align: start; background-color: initial;&quot;&gt;secretCreate&lt;/span&gt;&lt;/div&gt;&lt;div&gt;listSecret&amp;nbsp;&lt;/div&gt;" style="whiteSpace=wrap;html=1;rounded=1;glass=0;strokeWidth=1;shadow=0;fillColor=#f8cecc;strokeColor=#b85450;" vertex="1" parent="WIyWlLk6GJQsqaUBKTNV-1">
          <mxGeometry x="670" y="640" width="120" height="60" as="geometry" />
        </mxCell>
        <mxCell id="SqwQ_3rMoiUMI7zxhMic-12" value="No" style="text;html=1;align=center;verticalAlign=middle;resizable=0;points=[];autosize=1;strokeColor=none;fillColor=none;" vertex="1" parent="WIyWlLk6GJQsqaUBKTNV-1">
          <mxGeometry x="600" y="638" width="40" height="30" as="geometry" />
        </mxCell>
        <mxCell id="SqwQ_3rMoiUMI7zxhMic-17" value="" style="edgeStyle=orthogonalEdgeStyle;rounded=0;orthogonalLoop=1;jettySize=auto;html=1;" edge="1" parent="WIyWlLk6GJQsqaUBKTNV-1" source="SqwQ_3rMoiUMI7zxhMic-13" target="SqwQ_3rMoiUMI7zxhMic-16">
          <mxGeometry relative="1" as="geometry" />
        </mxCell>
        <mxCell id="SqwQ_3rMoiUMI7zxhMic-36" value="" style="edgeStyle=orthogonalEdgeStyle;rounded=0;orthogonalLoop=1;jettySize=auto;html=1;" edge="1" parent="WIyWlLk6GJQsqaUBKTNV-1" source="SqwQ_3rMoiUMI7zxhMic-13" target="SqwQ_3rMoiUMI7zxhMic-35">
          <mxGeometry relative="1" as="geometry" />
        </mxCell>
        <mxCell id="SqwQ_3rMoiUMI7zxhMic-13" value="Create a Role for Q app to connect to Datasource" style="whiteSpace=wrap;html=1;rounded=1;glass=0;strokeWidth=1;shadow=0;" vertex="1" parent="WIyWlLk6GJQsqaUBKTNV-1">
          <mxGeometry x="480" y="840" width="120" height="60" as="geometry" />
        </mxCell>
        <mxCell id="SqwQ_3rMoiUMI7zxhMic-15" value="Yes" style="text;html=1;align=center;verticalAlign=middle;resizable=0;points=[];autosize=1;strokeColor=none;fillColor=none;" vertex="1" parent="WIyWlLk6GJQsqaUBKTNV-1">
          <mxGeometry x="530" y="768" width="40" height="30" as="geometry" />
        </mxCell>
        <mxCell id="SqwQ_3rMoiUMI7zxhMic-19" value="" style="edgeStyle=orthogonalEdgeStyle;rounded=0;orthogonalLoop=1;jettySize=auto;html=1;" edge="1" parent="WIyWlLk6GJQsqaUBKTNV-1" source="SqwQ_3rMoiUMI7zxhMic-16" target="SqwQ_3rMoiUMI7zxhMic-18">
          <mxGeometry relative="1" as="geometry" />
        </mxCell>
        <mxCell id="SqwQ_3rMoiUMI7zxhMic-16" value="Allow full sync" style="whiteSpace=wrap;html=1;rounded=1;glass=0;strokeWidth=1;shadow=0;" vertex="1" parent="WIyWlLk6GJQsqaUBKTNV-1">
          <mxGeometry x="480" y="980" width="120" height="60" as="geometry" />
        </mxCell>
        <mxCell id="SqwQ_3rMoiUMI7zxhMic-23" value="" style="edgeStyle=orthogonalEdgeStyle;rounded=0;orthogonalLoop=1;jettySize=auto;html=1;" edge="1" parent="WIyWlLk6GJQsqaUBKTNV-1" source="SqwQ_3rMoiUMI7zxhMic-18" target="SqwQ_3rMoiUMI7zxhMic-22">
          <mxGeometry relative="1" as="geometry" />
        </mxCell>
        <mxCell id="SqwQ_3rMoiUMI7zxhMic-18" value="Allow Web Experience" style="whiteSpace=wrap;html=1;rounded=1;glass=0;strokeWidth=1;shadow=0;" vertex="1" parent="WIyWlLk6GJQsqaUBKTNV-1">
          <mxGeometry x="480" y="1120" width="120" height="60" as="geometry" />
        </mxCell>
        <mxCell id="SqwQ_3rMoiUMI7zxhMic-27" value="" style="edgeStyle=orthogonalEdgeStyle;rounded=0;orthogonalLoop=1;jettySize=auto;html=1;" edge="1" parent="WIyWlLk6GJQsqaUBKTNV-1" source="SqwQ_3rMoiUMI7zxhMic-22" target="SqwQ_3rMoiUMI7zxhMic-26">
          <mxGeometry relative="1" as="geometry" />
        </mxCell>
        <mxCell id="SqwQ_3rMoiUMI7zxhMic-29" value="" style="edgeStyle=orthogonalEdgeStyle;rounded=0;orthogonalLoop=1;jettySize=auto;html=1;" edge="1" parent="WIyWlLk6GJQsqaUBKTNV-1" source="SqwQ_3rMoiUMI7zxhMic-22" target="SqwQ_3rMoiUMI7zxhMic-28">
          <mxGeometry relative="1" as="geometry" />
        </mxCell>
        <mxCell id="SqwQ_3rMoiUMI7zxhMic-22" value="Web Experice access&amp;nbsp;" style="rhombus;whiteSpace=wrap;html=1;rounded=1;glass=0;strokeWidth=1;shadow=0;" vertex="1" parent="WIyWlLk6GJQsqaUBKTNV-1">
          <mxGeometry x="500" y="1250" width="80" height="80" as="geometry" />
        </mxCell>
        <mxCell id="SqwQ_3rMoiUMI7zxhMic-26" value="Need IAM policies to add Q role" style="whiteSpace=wrap;html=1;rounded=1;glass=0;strokeWidth=1;shadow=0;fillColor=#f8cecc;strokeColor=#b85450;" vertex="1" parent="WIyWlLk6GJQsqaUBKTNV-1">
          <mxGeometry x="640" y="1260" width="120" height="60" as="geometry" />
        </mxCell>
        <mxCell id="SqwQ_3rMoiUMI7zxhMic-28" value="Test App in custom web experience in Amazon Q" style="whiteSpace=wrap;html=1;rounded=1;glass=0;strokeWidth=1;shadow=0;" vertex="1" parent="WIyWlLk6GJQsqaUBKTNV-1">
          <mxGeometry x="480" y="1420" width="120" height="60" as="geometry" />
        </mxCell>
        <mxCell id="SqwQ_3rMoiUMI7zxhMic-30" value="no" style="text;html=1;align=center;verticalAlign=middle;resizable=0;points=[];autosize=1;strokeColor=none;fillColor=none;" vertex="1" parent="WIyWlLk6GJQsqaUBKTNV-1">
          <mxGeometry x="580" y="1258" width="40" height="30" as="geometry" />
        </mxCell>
        <mxCell id="SqwQ_3rMoiUMI7zxhMic-31" value="Yes" style="text;html=1;align=center;verticalAlign=middle;resizable=0;points=[];autosize=1;strokeColor=none;fillColor=none;" vertex="1" parent="WIyWlLk6GJQsqaUBKTNV-1">
          <mxGeometry x="530" y="1358" width="40" height="30" as="geometry" />
        </mxCell>
        <mxCell id="SqwQ_3rMoiUMI7zxhMic-32" value="Need App Access" style="whiteSpace=wrap;html=1;shadow=0;strokeWidth=1;spacing=6;spacingTop=-4;fillColor=#f8cecc;strokeColor=#b85450;" vertex="1" parent="WIyWlLk6GJQsqaUBKTNV-1">
          <mxGeometry x="140" y="130" width="120" height="60" as="geometry" />
        </mxCell>
        <mxCell id="SqwQ_3rMoiUMI7zxhMic-34" value="No" style="text;html=1;align=center;verticalAlign=middle;resizable=0;points=[];autosize=1;strokeColor=none;fillColor=none;" vertex="1" parent="WIyWlLk6GJQsqaUBKTNV-1">
          <mxGeometry x="280" y="128" width="40" height="30" as="geometry" />
        </mxCell>
        <mxCell id="SqwQ_3rMoiUMI7zxhMic-35" value="Need Permission to create a role" style="whiteSpace=wrap;html=1;rounded=1;glass=0;strokeWidth=1;shadow=0;fillColor=#f8cecc;strokeColor=#b85450;" vertex="1" parent="WIyWlLk6GJQsqaUBKTNV-1">
          <mxGeometry x="680" y="840" width="120" height="60" as="geometry" />
        </mxCell>
        <mxCell id="SqwQ_3rMoiUMI7zxhMic-37" value="No" style="text;html=1;align=center;verticalAlign=middle;resizable=0;points=[];autosize=1;strokeColor=none;fillColor=none;" vertex="1" parent="WIyWlLk6GJQsqaUBKTNV-1">
          <mxGeometry x="610" y="838" width="40" height="30" as="geometry" />
        </mxCell>
        <mxCell id="SqwQ_3rMoiUMI7zxhMic-38" value="Yes" style="text;html=1;align=center;verticalAlign=middle;resizable=0;points=[];autosize=1;strokeColor=none;fillColor=none;" vertex="1" parent="WIyWlLk6GJQsqaUBKTNV-1">
          <mxGeometry x="540" y="918" width="40" height="30" as="geometry" />
        </mxCell>
        <mxCell id="SqwQ_3rMoiUMI7zxhMic-41" value="" style="edgeStyle=orthogonalEdgeStyle;rounded=0;orthogonalLoop=1;jettySize=auto;html=1;" edge="1" parent="WIyWlLk6GJQsqaUBKTNV-1" source="SqwQ_3rMoiUMI7zxhMic-39" target="SqwQ_3rMoiUMI7zxhMic-0">
          <mxGeometry relative="1" as="geometry" />
        </mxCell>
        <mxCell id="SqwQ_3rMoiUMI7zxhMic-39" value="Create IAM Ident centre/provide" style="rounded=1;whiteSpace=wrap;html=1;fontSize=12;glass=0;strokeWidth=1;shadow=0;fillColor=#f8cecc;strokeColor=#b85450;" vertex="1" parent="WIyWlLk6GJQsqaUBKTNV-1">
          <mxGeometry x="680" y="260" width="120" height="40" as="geometry" />
        </mxCell>
        <mxCell id="SqwQ_3rMoiUMI7zxhMic-42" value="No" style="text;html=1;align=center;verticalAlign=middle;resizable=0;points=[];autosize=1;strokeColor=none;fillColor=none;" vertex="1" parent="WIyWlLk6GJQsqaUBKTNV-1">
          <mxGeometry x="620" y="248" width="40" height="30" as="geometry" />
        </mxCell>
        <mxCell id="SqwQ_3rMoiUMI7zxhMic-43" value="Yes" style="text;html=1;align=center;verticalAlign=middle;resizable=0;points=[];autosize=1;strokeColor=none;fillColor=none;" vertex="1" parent="WIyWlLk6GJQsqaUBKTNV-1">
          <mxGeometry x="540" y="318" width="40" height="30" as="geometry" />
        </mxCell>
        <mxCell id="SqwQ_3rMoiUMI7zxhMic-44" value="&lt;font color=&quot;#f02748&quot;&gt;Each datasource source has its own role&lt;/font&gt;&lt;div&gt;&lt;font color=&quot;#f02748&quot;&gt;So far we got only for Jira&lt;/font&gt;&lt;/div&gt;" style="text;html=1;align=center;verticalAlign=middle;resizable=0;points=[];autosize=1;strokeColor=none;fillColor=none;" vertex="1" parent="WIyWlLk6GJQsqaUBKTNV-1">
          <mxGeometry x="640" y="895" width="240" height="40" as="geometry" />
        </mxCell>
      </root>
    </mxGraphModel>
  </diagram>
</mxfile>
